<svg width="0" height="0" class="hidden">
  <symbol xmlns="http://www.w3.org/2000/svg" viewBox="0 0 512 512" id="arrow-back-outline">
    <path fill="none" stroke="currentColor" stroke-linecap="round" stroke-linejoin="round" stroke-width="48" d="M244 400L100 256l144-144M120 256h292"></path>
  </symbol>
  <symbol xmlns="http://www.w3.org/2000/svg" viewBox="0 0 512 512" id="call-outline">
    <path d="M451 374c-15.88-16-54.34-39.35-73-48.76-24.3-12.24-26.3-13.24-45.4.95-12.74 9.47-21.21 17.93-36.12 14.75s-47.31-21.11-75.68-49.39-47.34-61.62-50.53-76.48 5.41-23.23 14.79-36c13.22-18 12.22-21 .92-45.3-8.81-18.9-32.84-57-48.9-72.8C119.9 44 119.9 47 108.83 51.6A160.15 160.15 0 0083 65.37C67 76 58.12 84.83 51.91 98.1s-9 44.38 23.07 102.64 54.57 88.05 101.14 134.49S258.5 406.64 310.85 436c64.76 36.27 89.6 29.2 102.91 23s22.18-15 32.83-31a159.09 159.09 0 0013.8-25.8C465 391.17 468 391.17 451 374z" fill="none" stroke="currentColor" stroke-miterlimit="10" stroke-width="32"></path>
  </symbol>
  <symbol xmlns="http://www.w3.org/2000/svg" viewBox="0 0 512 512" id="chevron-down-outline">
    <path fill="none" stroke="currentColor" stroke-linecap="round" stroke-linejoin="round" stroke-width="48" d="M112 184l144 144 144-144"></path>
  </symbol>
  <symbol xmlns="http://www.w3.org/2000/svg" viewBox="0 0 512 512" id="copy-outline">
    <rect x="128" y="128" width="336" height="336" rx="57" ry="57" fill="none" stroke="currentColor" stroke-linejoin="round" stroke-width="32"></rect>
    <path d="M383.5 128l.5-24a56.16 56.16 0 00-56-56H112a64.19 64.19 0 00-64 64v216a56.16 56.16 0 0056 56h24" fill="none" stroke="currentColor" stroke-linecap="round" stroke-linejoin="round" stroke-width="32"></path>
  </symbol>
  <symbol xmlns="http://www.w3.org/2000/svg" viewBox="0 0 512 512" id="flag-outline">
    <path d="M80 464V68.14a8 8 0 014-6.9C91.81 56.66 112.92 48 160 48c64 0 145 48 192 48a199.53 199.53 0 0077.23-15.77 2 2 0 012.77 1.85v219.36a4 4 0 01-2.39 3.65C421.37 308.7 392.33 320 352 320c-48 0-128-32-192-32s-80 16-80 16" fill="none" stroke="currentColor" stroke-linecap="round" stroke-miterlimit="10" stroke-width="32"></path>
  </symbol>
  <symbol xmlns="http://www.w3.org/2000/svg" viewBox="0 0 512 512" id="language-outline">
    <path fill="none" stroke="currentColor" stroke-linecap="round" stroke-linejoin="round" stroke-width="32" d="M48 112h288M192 64v48M272 448l96-224 96 224M301.5 384h133M281.3 112S257 206 199 277 80 384 80 384"></path>
    <path d="M256 336s-35-27-72-75-56-85-56-85" fill="none" stroke="currentColor" stroke-linecap="round" stroke-linejoin="round" stroke-width="32"></path>
  </symbol>
  <symbol xmlns="http://www.w3.org/2000/svg" viewBox="0 0 512 512" id="moon-outline">
    <path d="M160 136c0-30.62 4.51-61.61 16-88C99.57 81.27 48 159.32 48 248c0 119.29 96.71 216 216 216 88.68 0 166.73-51.57 200-128-26.39 11.49-57.38 16-88 16-119.29 0-216-96.71-216-216z" fill="none" stroke="currentColor" stroke-linecap="round" stroke-linejoin="round" stroke-width="32"></path>
  </symbol>
  <symbol xmlns="http://www.w3.org/2000/svg" viewBox="0 0 512 512" id="sun-outline"><path fill="none" stroke="currentColor" stroke-linecap="round" stroke-miterlimit="10" stroke-width="32" d="M256 48v48M256 416v48M403.08 108.92l-33.94 33.94M142.86 369.14l-33.94 33.94M464 256h-48M96 256H48M403.08 403.08l-33.94-33.94M142.86 142.86l-33.94-33.94"/><circle cx="256" cy="256" r="80" fill="none" stroke="currentColor" stroke-linecap="round" stroke-miterlimit="10" stroke-width="32"/></symbol>
  <symbol xmlns="http://www.w3.org/2000/svg" viewBox="0 0 512 512" id="people-outline">
    <path d="M402 168c-2.93 40.67-33.1 72-66 72s-63.12-31.32-66-72c-3-42.31 26.37-72 66-72s69 30.46 66 72z" fill="none" stroke="currentColor" stroke-linecap="round" stroke-linejoin="round" stroke-width="32"></path>
    <path d="M336 304c-65.17 0-127.84 32.37-143.54 95.41-2.08 8.34 3.15 16.59 11.72 16.59h263.65c8.57 0 13.77-8.25 11.72-16.59C463.85 335.36 401.18 304 336 304z" fill="none" stroke="currentColor" stroke-miterlimit="10" stroke-width="32"></path>
    <path d="M200 185.94c-2.34 32.48-26.72 58.06-53 58.06s-50.7-25.57-53-58.06C91.61 152.15 115.34 128 147 128s55.39 24.77 53 57.94z" fill="none" stroke="currentColor" stroke-linecap="round" stroke-linejoin="round" stroke-width="32"></path>
    <path d="M206 306c-18.05-8.27-37.93-11.45-59-11.45-52 0-102.1 25.85-114.65 76.2-1.65 6.66 2.53 13.25 9.37 13.25H154" fill="none" stroke="currentColor" stroke-linecap="round" stroke-miterlimit="10" stroke-width="32"></path>
  </symbol>
  <symbol xmlns="http://www.w3.org/2000/svg" viewBox="0 0 512 512" id="return-down-back-outline">
    <path fill="none" stroke="currentColor" stroke-linecap="round" stroke-linejoin="round" stroke-width="32" d="M112 352l-64-64 64-64"></path>
    <path d="M64 288h294c58.76 0 106-49.33 106-108v-20" fill="none" stroke="currentColor" stroke-linecap="round" stroke-linejoin="round" stroke-width="32"></path>
  </symbol>
  <symbol xmlns="http://www.w3.org/2000/svg" viewBox="0 0 512 512" id="return-down-forward-outline">
    <path fill="none" stroke="currentColor" stroke-linecap="round" stroke-linejoin="round" stroke-width="32" d="M400 352l64-64-64-64"></path>
    <path d="M448 288H154c-58.76 0-106-49.33-106-108v-20" fill="none" stroke="currentColor" stroke-linecap="round" stroke-linejoin="round" stroke-width="32"></path>
  </symbol>
  <symbol xmlns="http://www.w3.org/2000/svg" viewBox="0 0 512 512" id="search-outline">
    <path d="M221.09 64a157.09 157.09 0 10157.09 157.09A157.1 157.1 0 00221.09 64z" fill="none" stroke="currentColor" stroke-miterlimit="10" stroke-width="32"></path>
    <path fill="none" stroke="currentColor" stroke-linecap="round" stroke-miterlimit="10" stroke-width="32" d="M338.29 338.29L448 448"></path>
  </symbol>
  <symbol xmlns="http://www.w3.org/2000/svg" viewBox="0 0 512 512" id="alert-outline">
    <path d="M256 80c-8.66 0-16.58 7.36-16 16l8 216a8 8 0 008 8h0a8 8 0 008-8l8-216c.58-8.64-7.34-16-16-16z" fill="none" stroke="currentColor" stroke-linecap="round" stroke-linejoin="round" stroke-width="32"></path>
    <circle cx="256" cy="416" r="16" fill="none" stroke="currentColor" stroke-linecap="round" stroke-linejoin="round" stroke-width="32"></circle>
  </symbol>
  <symbol xmlns="http://www.w3.org/2000/svg" viewBox="0 0 512 512" id="planet-outline"><path d="M413.48 284.46c58.87 47.24 91.61 89 80.31 108.55-17.85 30.85-138.78-5.48-270.1-81.15S.37 149.84 18.21 119c11.16-19.28 62.58-12.32 131.64 14.09" fill="none" stroke="currentColor" stroke-miterlimit="10" stroke-width="32"/><circle cx="256" cy="256" r="160" fill="none" stroke="currentColor" stroke-miterlimit="10" stroke-width="32"/></symbol>
</svg>